<?xml version="1.0" encoding="UTF-8"?>
<svg version="1.1" xmlns="http://www.w3.org/2000/svg" width="512" height="512">
<path d="M0 0 C12.61677452 5.50409211 23.84767985 14.03129944 34.5 22.625 C35.42167969 23.36492187 36.34335937 24.10484375 37.29296875 24.8671875 C40.04592284 27.0997419 42.77678088 29.35628199 45.5 31.625 C46.26546143 32.26091064 46.26546143 32.26091064 47.04638672 32.90966797 C54.13381036 38.80759394 61.03022644 44.86966303 67.79296875 51.13671875 C70.03702851 53.19944034 72.30959695 55.20618316 74.625 57.1875 C78.6386666 60.65990451 82.3226446 64.43322064 86.05078125 68.20703125 C88.81013595 70.93117887 91.69372972 73.45841631 94.6328125 75.984375 C99.0185254 79.83793027 103.00970662 84.01275443 106.8125 88.4375 C109.57618029 91.64833755 112.48619596 94.64767165 115.5 97.625 C119.71685089 101.80386124 123.65268112 106.10824764 127.5 110.625 C128.37926737 111.62973049 129.25956223 112.6335623 130.140625 113.63671875 C138.01853322 122.6520649 145.35161868 132.02356847 152.5 141.625 C153.17933594 142.52863281 153.85867188 143.43226563 154.55859375 144.36328125 C158.15947191 149.31137017 161.2713727 154.50867238 164.3125 159.8125 C164.69825195 160.47838135 165.08400391 161.1442627 165.48144531 161.83032227 C169.50500889 169.00543931 171.6152245 175.51875043 169.5 183.625 C164.16101095 197.49455089 153.99997424 209.41039626 144.5 220.625 C144.04898926 221.16092773 143.59797852 221.69685547 143.13330078 222.24902344 C133.69268881 233.45755224 123.93500841 244.30760311 113.49609375 254.59765625 C111.65808995 256.46443506 109.94637448 258.37999724 108.25 260.375 C101.34161965 268.41062189 93.66892622 275.90462069 85.58984375 282.75390625 C82.78087794 285.26884947 80.1491242 287.94353946 77.5 290.625 C73.63701261 294.53047067 69.73261623 298.29630602 65.546875 301.859375 C63.04285151 304.0193342 60.62002302 306.25987993 58.1875 308.5 C53.71910216 312.57557165 49.12727535 316.43778318 44.41796875 320.23046875 C42.36575535 321.91454749 40.35522941 323.61141494 38.36328125 325.36328125 C4.26576681 355.32806834 4.26576681 355.32806834 -6.5 354.875 C-22.88957515 350.9758672 -38.65589832 336.02525958 -51.5 325.625 C-52.43199219 324.87605469 -53.36398438 324.12710937 -54.32421875 323.35546875 C-65.04134366 314.67225075 -75.48284093 305.68273429 -85.5859375 296.29296875 C-87.82935521 294.23900857 -90.09248958 292.22636764 -92.38671875 290.23046875 C-104.26917721 279.86620005 -115.46787817 268.75738864 -126.625 257.625 C-127.43298538 256.82089691 -127.43298538 256.82089691 -128.2572937 256.00054932 C-133.6840582 250.59438427 -139.04262652 245.17249224 -144.02392578 239.34619141 C-146.2361673 236.76658461 -148.55877998 234.29913261 -150.875 231.8125 C-155.9869276 226.26452934 -160.8233115 220.54731367 -165.5 214.625 C-166.25482666 213.67898926 -166.25482666 213.67898926 -167.02490234 212.71386719 C-187.9933198 186.35535134 -187.9933198 186.35535134 -187.5 175.625 C-186.75104415 172.86978658 -185.5557235 170.49759562 -184.1875 168 C-183.82358154 167.3090625 -183.45966309 166.618125 -183.0847168 165.90625 C-170.73794447 143.10739076 -151.71400039 123.14149855 -134.08496094 104.32324219 C-132.47758204 102.60097977 -130.88254245 100.86793511 -129.2890625 99.1328125 C-121.24355149 90.4128068 -112.94163606 81.96014183 -104.5625 73.5625 C-104.02420563 73.02161743 -103.48591125 72.48073486 -102.93130493 71.92346191 C-97.49431786 66.46583816 -92.05584324 61.05619311 -86.16772461 56.07836914 C-84.35946698 54.50252993 -82.67912904 52.83707271 -81 51.125 C-77.33712494 47.41295884 -73.45850906 44.01708825 -69.5 40.625 C-68.48018849 39.7412087 -67.46068012 38.85706755 -66.44140625 37.97265625 C-62.81429288 34.8330185 -59.16267811 31.72304241 -55.5 28.625 C-54.87561035 28.09567871 -54.2512207 27.56635742 -53.60791016 27.02099609 C-45.8390347 20.46943737 -37.87467516 14.32412607 -29.5 8.5625 C-28.72309814 8.02633057 -27.94619629 7.49016113 -27.14575195 6.93774414 C-18.22686512 0.90711525 -10.85789124 -3.81297184 0 0 Z M-10.5 42.625 C-13.61726996 51.90722866 -16.72964517 61.19108269 -19.83582211 70.4770298 C-21.27837289 74.78904185 -22.72258895 79.10048095 -24.1706543 83.41064453 C-25.56865215 87.57198735 -26.96221849 91.73479017 -28.35275459 95.89863205 C-28.88343059 97.48512687 -29.41568781 99.07109371 -29.94956779 100.65651321 C-30.69838401 102.88111274 -31.44150166 105.10754134 -32.18334961 107.33447266 C-32.40417206 107.98615417 -32.62499451 108.63783569 -32.85250854 109.30926514 C-34.12097283 113.14038729 -34.82651648 116.58409887 -35.5 120.625 C-29.89 120.625 -24.28 120.625 -18.5 120.625 C-18.59087891 123.16453369 -18.59087891 123.16453369 -18.68359375 125.75537109 C-18.88579519 131.42692818 -19.08500714 137.09858533 -19.28230286 142.77031517 C-19.40171625 146.20012805 -19.52223132 149.62989394 -19.64550781 153.05957031 C-20.17897459 167.92262572 -20.63118748 182.75161933 -20.5 197.625 C-12.58 197.625 -4.66 197.625 3.5 197.625 C3.663566 171.94513789 3.14607031 146.25666626 1.5 120.625 C8.76 120.625 16.02 120.625 23.5 120.625 C21.03869727 112.3183396 21.03869727 112.3183396 17.92578125 104.421875 C17.43037842 103.29410645 16.93497559 102.16633789 16.42456055 101.00439453 C15.89258057 99.80669434 15.36060059 98.60899414 14.8125 97.375 C13.65511266 94.74382156 12.50294848 92.11037184 11.3515625 89.4765625 C11.04794296 88.78299652 10.74432343 88.08943054 10.4315033 87.37484741 C6.42732681 78.20463945 2.56130976 68.97583097 -1.3125 59.75 C-1.67242035 58.89337769 -2.0323407 58.03675537 -2.40316772 57.1541748 C-4.43758216 52.31201111 -6.46984374 47.46895048 -8.5 42.625 C-9.16 42.625 -9.82 42.625 -10.5 42.625 Z M-114.5 158.625 C-118.08525645 162.69243844 -120.86963695 166.71713393 -121.125 172.25 C-120.58127792 178.92505619 -117.33568523 183.05463735 -112.6875 187.5625 C-78.74386251 216.11476557 -23.36642741 218.28238696 18.82080078 215.39794922 C42.23349504 213.27835834 70.42244305 206.06690356 86.5 187.625 C89.5327427 183.66558592 91.39908468 180.67076576 91.5 175.625 C89.27345255 165.76457559 81.58155177 160.87800865 73.5 155.625 C73.17 154.965 72.84 154.305 72.5 153.625 C74.15 153.295 75.8 152.965 77.5 152.625 C75.30571859 150.43071859 74.25492794 150.10150066 71.32568359 149.29638672 C70.46494232 149.05628876 69.60420105 148.8161908 68.71737671 148.56881714 C67.78712677 148.31665436 66.85687683 148.06449158 65.8984375 147.8046875 C64.94683746 147.54116486 63.99523743 147.27764221 63.01480103 147.00613403 C59.96989251 146.16447409 56.92252108 145.33214496 53.875 144.5 C51.81233128 143.93160148 49.74982898 143.36259869 47.6875 142.79296875 C42.62691139 141.39662375 37.56426874 140.00793456 32.5 138.625 C30.81449633 141.99600733 32.81136964 145.34514632 33.9375 148.75 C34.18048828 149.50410156 34.42347656 150.25820312 34.67382812 151.03515625 C35.27595819 152.90057879 35.88713463 154.76307683 36.5 156.625 C38.27503906 156.52058594 38.27503906 156.52058594 40.0859375 156.4140625 C49.8291813 156.01307627 56.68415393 156.13491874 64.5 162.625 C65.40298828 163.26888672 65.40298828 163.26888672 66.32421875 163.92578125 C69.97200717 166.63733342 71.96742809 169.36785581 73.5 173.625 C74.00932593 177.69960743 73.81028681 179.96395419 72.0625 183.6875 C57.44704509 200.44180198 27.23629161 202.73443897 6.39453125 204.34765625 C-17.21549122 205.8366623 -40.81834634 204.71712581 -62.5625 194.6875 C-63.2652002 194.36378418 -63.96790039 194.04006836 -64.69189453 193.70654297 C-70.44387605 190.91975702 -75.07139277 187.87613866 -78.5625 182.375 C-79.83991638 177.26533446 -79.18392416 174.1330283 -76.5 169.625 C-70.34917931 162.59761308 -60.79061444 159.23361572 -52.44384766 155.50976562 C-49.75876794 154.28761932 -47.12751173 152.96565165 -44.5 151.625 C-46.90318593 148.976338 -49.49488027 147.29646794 -52.5703125 145.48828125 C-53.54871094 144.91142578 -54.52710938 144.33457031 -55.53515625 143.74023438 C-56.55480469 143.14533203 -57.57445312 142.55042969 -58.625 141.9375 C-59.65238281 141.33099609 -60.67976563 140.72449219 -61.73828125 140.09960938 C-77.70839795 130.72217625 -101.53662936 147.55976017 -114.5 158.625 Z M-20.5 222.625 C-21.42996285 226.34485138 -21.80234832 229.62751017 -22.07250977 233.44140625 C-22.12142365 234.11831512 -22.17033752 234.795224 -22.22073364 235.49264526 C-22.38107521 237.72403245 -22.53632158 239.95574178 -22.69140625 242.1875 C-22.80180865 243.74163701 -22.9124846 245.29575462 -23.02342224 246.84985352 C-23.25501708 250.10450527 -23.48426237 253.35931085 -23.71166992 256.61425781 C-24.00304998 260.78412624 -24.29876715 264.9536722 -24.59605503 269.12312317 C-24.82459161 272.33149835 -25.05158192 275.53998132 -25.27802849 278.74850464 C-25.38657505 280.28590012 -25.49542533 281.82327419 -25.60458565 283.36062622 C-25.75680791 285.50984956 -25.90713211 287.6591971 -26.05688477 289.80859375 C-26.14269302 291.03118896 -26.22850128 292.25378418 -26.31690979 293.51342773 C-26.45620075 295.8806428 -26.5 298.25369042 -26.5 300.625 C-14.95 300.625 -3.4 300.625 8.5 300.625 C7.51 274.885 6.52 249.145 5.5 222.625 C-3.08 222.625 -11.66 222.625 -20.5 222.625 Z " fill="#00669A" transform="translate(262.5,80.375)"/>
<path d="M0 0 C3.25 1.5 3.25 1.5 6 4 C6.91652344 4.804375 6.91652344 4.804375 7.8515625 5.625 C12.69613223 10.11417658 16.12501922 15.06743188 19.6796875 20.6015625 C23.76546422 26.76115287 28.68537536 32.32872706 33.38476562 38.02148438 C35.82934024 41.01586658 38.1940988 44.07030563 40.5625 47.125 C45.66441081 53.67137195 51.03061545 59.96616902 56.47070312 66.23242188 C58.02474753 68.02860347 59.56859331 69.83305802 61.109375 71.640625 C65.57596908 76.8796323 70.05345986 82.09488297 74.6875 87.1875 C77.75175042 90.55541488 80.65143574 94.01040432 83.5 97.5625 C87.05311436 101.95746724 90.83328777 105.94236607 94.87890625 109.8828125 C97.48449283 112.48360058 99.85896267 115.24197724 102.25390625 118.03515625 C104.65209001 120.73378361 107.21611524 123.24314575 109.8125 125.75 C111.68254259 127.67347238 113.42625478 129.63692175 115.17407227 131.66967773 C118.76592806 135.78542454 122.53463515 139.67970489 126.40234375 143.53515625 C127.08373917 144.21750839 127.76513458 144.89986053 128.46717834 145.60289001 C129.89705741 147.03344437 131.32817911 148.46275767 132.76049805 149.89086914 C134.93197711 152.05699074 137.09806325 154.22840174 139.26367188 156.40039062 C140.66374202 157.79979987 142.06412238 159.19889884 143.46484375 160.59765625 C144.10155502 161.23639175 144.7382663 161.87512726 145.39427185 162.53321838 C149.20405546 166.32355307 153.12521522 169.93097541 157.19866943 173.43678284 C159.97170765 175.84326004 162.63478521 178.36371834 165.3125 180.875 C170.07609048 185.30143039 174.94068151 189.53524673 180.015625 193.60546875 C182.23027542 195.38240685 184.42492381 197.17495802 186.609375 198.98828125 C203.97335488 213.35501134 222.29706509 226.19175825 241.875 237.375 C246.03542823 239.9134431 248.62708174 241.64964985 251 246 C252.05461717 251.42374546 252.28977115 256.47584665 249.7265625 261.4921875 C245.49411036 266.68572047 239.9914695 270.20950124 234.40161133 273.78466797 C225.74014817 279.34488023 217.70126734 285.73922976 209.56298828 292.02783203 C207.17592349 293.86463041 204.77720643 295.68435284 202.37109375 297.49609375 C194.41456468 303.49637611 186.7107062 309.68545306 179.19921875 316.234375 C176.33472807 318.72850902 173.40024848 321.12296082 170.4375 323.5 C165.073458 327.8513615 160.03883753 332.51290176 154.9921875 337.22265625 C152.67759738 339.38077719 150.33104254 341.4917381 147.9375 343.5625 C140.64059749 349.88545154 133.49295507 356.39446614 126.73779297 363.29467773 C125.04577755 364.95507781 123.29554222 366.48616334 121.48828125 368.01953125 C116.57495587 372.29517211 111.97460354 376.87473339 107.3815918 381.48803711 C105.93974779 382.93524385 104.49262884 384.37702026 103.04492188 385.81835938 C98.33384547 390.52641088 93.75921877 395.29945806 89.42407227 400.35766602 C87.70685763 402.3380711 85.88525366 404.17975508 84 406 C80.78565269 409.1711603 77.78249037 412.45582753 74.83984375 415.87890625 C72.80491181 418.22491058 70.71709033 420.5173645 68.625 422.8125 C64.75088119 427.10473618 61.07982452 431.52778674 57.4453125 436.0234375 C55.20378654 438.75194035 52.91678959 441.42942097 50.60375977 444.09692383 C45.00098466 450.56057203 39.66706708 457.16649656 34.51513672 463.99902344 C32.70878138 466.38460003 30.88785499 468.7587408 29.06640625 471.1328125 C27.64833281 472.98429482 26.23036436 474.83585756 24.8125 476.6875 C24.14702148 477.5544751 23.48154297 478.4214502 22.79589844 479.31469727 C18.37394642 485.10600314 14.13599328 491.00152311 10 497 C7.04708572 501.24481428 3.93814253 504.27484485 -1 506 C-6.71100654 507.01087408 -11.57458391 506.73433678 -16.625 503.75 C-21.64583049 499.91784669 -25.11468245 495.02200234 -28.69433594 489.87207031 C-31.21330298 486.26035766 -33.79937106 482.69640834 -36.375 479.125 C-36.93155273 478.35140137 -37.48810547 477.57780273 -38.06152344 476.78076172 C-46.74573196 464.75356183 -56.14122238 453.29371915 -65.5234375 441.80859375 C-66.83047541 440.2076452 -68.13423356 438.60402024 -69.4375 437 C-77.3938051 427.22511087 -85.4849707 417.58345981 -93.9609375 408.25390625 C-95.79086247 406.2311731 -97.58881728 404.18630565 -99.375 402.125 C-104.14765579 396.65655841 -109.06575658 391.32224772 -114 386 C-114.58426758 385.36916504 -115.16853516 384.73833008 -115.77050781 384.08837891 C-123.5436015 375.71406271 -131.434289 367.4683419 -139.5 359.375 C-140.59356812 358.27454346 -140.59356812 358.27454346 -141.70922852 357.15185547 C-145.76592965 353.10675419 -149.92882983 349.25457074 -154.26757812 345.51416016 C-156.27308766 343.76131769 -158.15022745 341.91583585 -160 340 C-163.83600678 336.11956071 -167.85697028 332.5472552 -172 329 C-173.00711652 328.11787901 -174.013576 327.23500755 -175.01953125 326.3515625 C-183.32345755 319.09641249 -191.91407232 312.29976148 -200.74072266 305.69287109 C-203.04546449 303.96593356 -205.34090736 302.22706666 -207.63671875 300.48828125 C-217.08254731 293.38388507 -226.74759327 286.85326991 -236.79296875 280.62890625 C-241.66625047 277.60571681 -246.37448695 274.38946781 -251 271 C-251.928125 270.360625 -252.85625 269.72125 -253.8125 269.0625 C-259.33741454 263.85329487 -261.33499918 259.57752765 -261.5625 251.875 C-261.28927835 245.29666327 -260.15499863 242.06887845 -255.40795898 237.45141602 C-249.94498202 232.43701617 -244.03064438 228.94848354 -237.5625 225.375 C-226.98276879 219.36366077 -217.36715054 212.74865232 -208 205 C-207.3905957 204.49807129 -206.78119141 203.99614258 -206.15332031 203.47900391 C-202.39267555 200.36755446 -198.68535464 197.20016789 -195 194 C-194.26523438 193.36578125 -193.53046875 192.7315625 -192.7734375 192.078125 C-188.31885359 188.20920351 -183.9350941 184.26152343 -179.55859375 180.3046875 C-177.91267568 178.82210481 -176.25956199 177.34745138 -174.59765625 175.8828125 C-169.07848208 170.99874589 -163.85114968 165.89052112 -158.67211914 160.65283203 C-155.90448331 157.86520885 -153.13012064 155.15975393 -150.125 152.625 C-146.02884582 149.14021212 -142.24353611 145.35741548 -138.4375 141.5625 C-137.81182129 140.94133301 -137.18614258 140.32016602 -136.54150391 139.68017578 C-133.44382501 136.5727276 -130.45866937 133.41712045 -127.59765625 130.08984375 C-122.91711907 124.67162393 -117.77401367 119.72746981 -112.671875 114.7109375 C-108.51816161 110.59960894 -104.54257311 106.41928052 -100.73339844 101.98730469 C-97.63558656 98.43572882 -94.36983712 95.04174902 -91.125 91.625 C-86.01796381 86.22309083 -80.94697133 80.80274104 -76.00390625 75.25 C-74.6046469 73.67890179 -73.19491548 72.11709535 -71.77734375 70.5625 C-67.10504871 65.43339396 -62.66900967 60.16916881 -58.30859375 54.7734375 C-55.99429563 51.99314703 -53.58565427 49.33863145 -51.125 46.6875 C-42.17424027 36.90796622 -34.40472299 26.50887922 -27.32275391 15.30444336 C-20.08895434 4.07049635 -13.81765343 -1.45252961 0 0 Z M-18.4375 69.3125 C-19.12779297 69.66932861 -19.81808594 70.02615723 -20.52929688 70.39379883 C-34.56459292 77.85521924 -46.8824436 87.80385812 -59 98 C-59.61117676 98.51208008 -60.22235352 99.02416016 -60.85205078 99.55175781 C-68.42240492 105.90979221 -75.77263121 112.47437936 -83 119.21875 C-85.54320292 121.5889895 -88.13795736 123.89313823 -90.75 126.1875 C-96.37710562 131.21302361 -101.64842503 136.59613184 -106.93652344 141.97338867 C-109.97420934 145.04797381 -112.98364783 148.06721006 -116.33203125 150.8046875 C-118.50055083 152.58903304 -120.18590199 154.21215724 -121.9375 156.375 C-125.56916734 160.64850564 -129.51652647 164.55910459 -133.5 168.5 C-137.9584582 172.919581 -142.35182955 177.32589008 -146.40625 182.125 C-148.34325871 184.40383378 -150.35905625 186.60324657 -152.375 188.8125 C-157.10589655 194.06196025 -161.56738845 199.49818024 -166 205 C-166.9603136 206.16848178 -167.92128272 207.33642504 -168.8828125 208.50390625 C-188.06634312 230.59531958 -188.06634312 230.59531958 -195.5390625 257.5625 C-188.89735577 287.59456522 -156.81315842 316.51451236 -135.7265625 337.2421875 C-133.88208729 339.12004688 -132.15722658 341.07004146 -130.4375 343.0625 C-126.05201445 348.14251946 -121.41307004 352.82461571 -116.3125 357.1875 C-112.69856991 360.29618161 -109.34741295 363.61138972 -106 367 C-102.15848619 370.88374132 -98.27627184 374.62554818 -94.11328125 378.16796875 C-91.94345319 380.04902117 -89.83512575 381.98943356 -87.73071289 383.94311523 C-82.57601783 388.7259481 -77.3103125 393.28997366 -71.828125 397.69921875 C-69.32178923 399.73821291 -66.86391367 401.8237374 -64.41699219 403.93334961 C-36.23704482 429.49161768 -36.23704482 429.49161768 -2 442 C4.94159758 440.1251729 10.88016264 436.48204118 16.75 432.4375 C17.5244043 431.9115625 18.29880859 431.385625 19.09667969 430.84375 C30.7802022 422.82064768 41.5634388 413.790712 52.25439453 404.50732422 C53.98187975 403.01564678 55.72090215 401.53879474 57.46484375 400.06640625 C65.41571937 393.34235869 73.08437943 386.36427393 80.64794922 379.20849609 C82.49597172 377.4732655 84.35231778 375.74881324 86.21533203 374.02978516 C95.28952282 365.64062602 104.12102603 357.03523577 112.84619141 348.28417969 C115.02261269 346.10233092 117.20442239 343.92597087 119.38671875 341.75 C120.79980037 340.33625848 122.21257223 338.92220726 123.625 337.5078125 C124.58297485 336.55287399 124.58297485 336.55287399 125.56030273 335.5786438 C129.35119617 331.76821675 132.95714157 327.84425096 136.46405029 323.77062988 C138.6580408 321.24141611 140.95766939 318.81499608 143.25 316.375 C148.72639424 310.45521531 153.73942788 304.23559759 158.61621094 297.81640625 C159.54036277 296.60333468 160.47074737 295.39498673 161.40722656 294.19140625 C171.63692795 281.04196286 182.69370732 266.36050001 181 249 C176.61272823 231.33899271 164.16064489 215.91178923 153 202 C152.56768066 201.45585449 152.13536133 200.91170898 151.68994141 200.35107422 C147.02584465 194.4854182 142.14353205 188.85171185 137.09765625 183.3125 C135.30492554 181.33615628 133.55204773 179.3354327 131.8125 177.3125 C121.5404986 165.5959984 110.62766604 154.52419628 99.625 143.5 C99.0136319 142.8860437 98.40226379 142.2720874 97.77236938 141.63952637 C88.95178409 132.7808313 88.95178409 132.7808313 79.6640625 124.41894531 C77.0986439 122.23141407 74.65445063 119.92288688 72.1875 117.625 C67.59710032 113.38937884 62.89362137 109.34788193 58.0234375 105.43359375 C55.78307719 103.63030632 53.56232595 101.81152092 51.3515625 99.97265625 C19.56018634 71.62378297 19.56018634 71.62378297 -18.4375 69.3125 Z " fill="#00669A" transform="translate(261,3)"/>
</svg>
